<?xml version="1.0" standalone="no"?><svg xmlns="http://www.w3.org/2000/svg" viewBox="0 0 1440 320"><path fill="#5000ca" fill-opacity="1" d="M0,320L7.5,277.3C15,235,30,149,45,96C60,43,75,21,90,42.7C105,64,120,128,135,154.7C150,181,165,171,180,160C195,149,210,139,225,149.3C240,160,255,192,270,192C285,192,300,160,315,138.7C330,117,345,107,360,112C375,117,390,139,405,154.7C420,171,435,181,450,154.7C465,128,480,64,495,37.3C510,11,525,21,540,48C555,75,570,117,585,138.7C600,160,615,160,630,170.7C645,181,660,203,675,181.3C690,160,705,96,720,101.3C735,107,750,181,765,181.3C780,181,795,107,810,96C825,85,840,139,855,170.7C870,203,885,213,900,224C915,235,930,245,945,240C960,235,975,213,990,186.7C1005,160,1020,128,1035,112C1050,96,1065,96,1080,112C1095,128,1110,160,1125,144C1140,128,1155,64,1170,37.3C1185,11,1200,21,1215,53.3C1230,85,1245,139,1260,170.7C1275,203,1290,213,1305,208C1320,203,1335,181,1350,197.3C1365,213,1380,267,1395,282.7C1410,299,1425,277,1433,266.7L1440,256L1440,0L1432.5,0C1425,0,1410,0,1395,0C1380,0,1365,0,1350,0C1335,0,1320,0,1305,0C1290,0,1275,0,1260,0C1245,0,1230,0,1215,0C1200,0,1185,0,1170,0C1155,0,1140,0,1125,0C1110,0,1095,0,1080,0C1065,0,1050,0,1035,0C1020,0,1005,0,990,0C975,0,960,0,945,0C930,0,915,0,900,0C885,0,870,0,855,0C840,0,825,0,810,0C795,0,780,0,765,0C750,0,735,0,720,0C705,0,690,0,675,0C660,0,645,0,630,0C615,0,600,0,585,0C570,0,555,0,540,0C525,0,510,0,495,0C480,0,465,0,450,0C435,0,420,0,405,0C390,0,375,0,360,0C345,0,330,0,315,0C300,0,285,0,270,0C255,0,240,0,225,0C210,0,195,0,180,0C165,0,150,0,135,0C120,0,105,0,90,0C75,0,60,0,45,0C30,0,15,0,8,0L0,0Z"></path></svg>